<svg width="186" height="60" viewBox="0 0 186 60" fill="none" xmlns="http://www.w3.org/2000/svg">
<g clip-path="url(#clip0_1664_133)">
<path d="M52.3282 38.5176H49.9512V40.7716H52.3282V38.5176Z" fill="black"/>
<path d="M49.9512 43.2949H52.3282V58.2358C52.3282 58.2802 52.3106 58.3227 52.2793 58.354C52.2479 58.3854 52.2054 58.403 52.161 58.403H50.1184C50.0741 58.403 50.0315 58.3854 50.0002 58.354C49.9688 58.3227 49.9512 58.2802 49.9512 58.2358V43.2949Z" fill="black"/>
<path d="M56.627 43.3548L59.0364 43.3281L59.2172 58.128C59.2178 58.1716 59.2012 58.2137 59.1711 58.2453C59.141 58.2769 59.0997 58.2955 59.0561 58.2971L57.0152 58.3713C56.9929 58.3721 56.9707 58.3685 56.9499 58.3606C56.9291 58.3527 56.91 58.3407 56.8939 58.3254C56.8777 58.3101 56.8648 58.2917 56.8559 58.2713C56.8469 58.2509 56.8422 58.2289 56.8419 58.2067L56.627 43.3548Z" fill="black"/>
<path d="M58.758 45.706L59.675 44.917C60.5582 44.151 61.6052 43.5975 62.7357 43.2988C63.3184 43.145 63.9158 43.0534 64.5178 43.0255C66.7121 42.9341 70.0948 42.6904 71.4967 43.7565C72.8985 44.8226 73.0662 45.4471 73.4547 46.6654C73.6654 47.3262 73.5819 56.7914 73.5703 58.0057C73.5699 58.0398 73.556 58.0725 73.5316 58.0965C73.5072 58.1204 73.4743 58.1338 73.4401 58.1336H71.5334C71.4993 58.1336 71.4665 58.1201 71.4421 58.0961C71.4178 58.0722 71.4038 58.0396 71.4033 58.0054L71.2376 47.0766C71.2376 47.0766 70.9786 45.2795 69.3025 45.0663C67.6263 44.8531 63.1464 44.381 61.3179 45.2947C59.4506 46.2279 58.7275 47.2594 58.7275 47.2594L58.758 45.706Z" fill="black"/>
<path d="M78.7776 49.5167C78.7312 49.516 78.6854 49.506 78.643 49.4872C78.6006 49.4685 78.5624 49.4414 78.5307 49.4075C78.4989 49.3737 78.4743 49.3339 78.4583 49.2904C78.4423 49.2468 78.4353 49.2006 78.4375 49.1543L78.4724 46.3734C78.4768 46.2705 78.5006 46.1694 78.5427 46.0754L78.549 46.0617C78.7777 45.5752 79.1409 45.1644 79.5958 44.8778C80.0506 44.5912 80.5781 44.4407 81.1158 44.4442C81.8106 44.4444 82.7017 44.4521 83.1003 44.4867C83.6408 44.5337 86.4103 44.5988 87.6497 44.6261C88.4709 44.6367 89.2564 44.9631 89.8429 45.5376C90.2696 46.1468 90.94 46.3443 90.818 49.616L90.8484 50.9864L93.0201 50.9695C93.1178 49.6272 93.1101 48.2794 92.9971 46.9383C92.8603 45.9638 92.9053 45.1185 91.7875 44.0385C91.1669 43.4525 90.3912 43.0567 89.5524 42.898C88.8966 42.7552 88.2283 42.6775 87.5573 42.6663C86.3263 42.64 82.543 42.558 81.0203 42.5515C80.25 42.5389 79.4867 42.6997 78.7871 43.0222C78.1343 43.3493 77.5825 43.8474 77.1909 44.4635C76.7992 45.0795 76.5823 45.7903 76.5633 46.5199C76.4033 50.2665 76.4948 55.0639 76.4948 55.0639C76.4948 55.0639 76.449 57.5312 79.5575 57.9881C81.9801 58.3441 87.5426 58.2328 89.8797 58.1663C90.3998 58.1606 90.9094 58.0186 91.3574 57.7544C91.8054 57.4903 92.1763 57.1133 92.4329 56.6611C92.4734 56.5858 92.5113 56.5076 92.5461 56.4265C92.9714 55.4859 93.1595 54.4555 93.094 53.4254L90.9716 53.4342C90.966 53.4301 90.9515 55.3761 90.2315 55.7336C89.4712 56.1111 81.9064 56.0607 81.9064 56.0607C81.9064 56.0607 79.7325 56.0933 79.1839 55.6669C79.1839 55.6669 78.3728 55.3148 78.4033 53.1521L78.3769 51.3835C78.381 51.25 78.4372 51.1235 78.5334 51.031C78.6297 50.9384 78.7584 50.8872 78.8919 50.8883L90.9134 50.9861L90.8982 49.6154L78.7776 49.5167Z" fill="black"/>
<path d="M171.666 49.7257C171.62 49.725 171.574 49.715 171.532 49.6962C171.489 49.6775 171.451 49.6504 171.419 49.6165C171.388 49.5827 171.363 49.5429 171.347 49.4994C171.331 49.4558 171.324 49.4096 171.326 49.3633L171.361 46.5824C171.365 46.4795 171.389 46.3784 171.431 46.2844L171.438 46.2707C171.666 45.7842 172.03 45.3734 172.484 45.0868C172.939 44.8002 173.467 44.6497 174.005 44.6532C174.699 44.6534 175.59 44.6611 175.989 44.6957C176.529 44.7427 179.299 44.8078 180.538 44.8351C181.36 44.8457 182.145 45.1721 182.732 45.7466C183.158 46.3558 183.829 46.5533 183.707 49.8249L183.737 51.1954L185.909 51.1785C186.006 49.8362 185.999 48.4884 185.886 47.1473C185.749 46.1728 185.794 45.3275 184.676 44.2475C184.056 43.6615 183.28 43.2657 182.441 43.107C181.785 42.9641 181.117 42.8865 180.446 42.8753C179.215 42.849 175.432 42.767 173.909 42.7605C173.139 42.7478 172.375 42.9087 171.676 43.2312C171.023 43.5583 170.471 44.0564 170.08 44.6724C169.688 45.2885 169.471 45.9993 169.452 46.7289C169.292 50.4755 169.383 55.2729 169.383 55.2729C169.383 55.2729 169.338 57.7401 172.446 58.197C174.869 58.5531 180.431 58.4418 182.768 58.3753C183.288 58.3696 183.798 58.2276 184.246 57.9634C184.694 57.6993 185.065 57.3223 185.322 56.87C185.362 56.7947 185.4 56.7166 185.435 56.6355C185.86 55.6949 186.048 54.6645 185.983 53.6344L183.86 53.6432C183.855 53.6391 183.84 55.5851 183.12 55.9426C182.36 56.32 174.795 56.2697 174.795 56.2697C174.795 56.2697 172.621 56.3023 172.073 55.8759C172.073 55.8759 171.261 55.5237 171.292 53.3611L171.266 51.5925C171.27 51.459 171.326 51.3325 171.422 51.24C171.518 51.1474 171.647 51.0962 171.781 51.0973L183.802 51.1951L183.787 49.8244L171.666 49.7257Z" fill="black"/>
<path d="M97.3438 43.4782V45.0925L99.5299 45.096C99.5474 45.0961 99.5647 45.0995 99.5809 45.1063C99.5971 45.1131 99.6118 45.1229 99.6241 45.1354C99.6364 45.1478 99.6462 45.1626 99.6528 45.1788C99.6594 45.1951 99.6627 45.2124 99.6626 45.2299L99.5619 58.0997C99.5616 58.1363 99.5759 58.1716 99.6015 58.1978C99.6271 58.224 99.6621 58.2389 99.6987 58.2395L101.558 58.2656C101.576 58.2658 101.594 58.2625 101.611 58.2556C101.628 58.2488 101.644 58.2387 101.657 58.2258C101.67 58.213 101.68 58.1976 101.687 58.1807C101.694 58.1638 101.698 58.1457 101.698 58.1273L101.735 45.2748C101.736 45.2194 101.758 45.1663 101.797 45.127C101.836 45.0878 101.889 45.0657 101.944 45.0655L108.799 45.0354V43.377L101.95 43.381C101.802 43.3788 101.635 43.2793 101.637 43.1317V41.5478C101.637 41.3806 101.631 40.9915 101.633 40.8243C101.637 40.5502 101.759 40.3522 102.262 40.1923C102.932 39.9791 109.073 40.1314 109.073 40.1314V38.3342H102.352C101.924 38.3284 101.5 38.4203 101.113 38.6029C100.727 38.7855 100.387 39.054 100.119 39.388C99.8967 39.6561 99.7568 39.9832 99.717 40.3294C99.6412 41.2893 99.7376 42.7917 99.7103 43.2714C99.7079 43.3136 99.6896 43.3533 99.6591 43.3827C99.6285 43.412 99.5881 43.4287 99.5458 43.4295L97.3438 43.4782Z" fill="black"/>
<path d="M134.413 45.9477C134.413 45.9477 135.922 43.8612 136.501 43.5261C136.559 43.4926 136.619 43.4606 136.68 43.4302C137.274 43.1445 137.926 43.0001 138.584 43.0083H143.896C144.415 43.0015 144.929 43.1163 145.396 43.3434C145.664 43.4517 145.903 43.621 146.094 43.8377C146.285 44.0545 146.423 44.3128 146.497 44.5922C146.629 45.615 146.682 46.6465 146.653 47.6775C146.652 47.7323 146.63 47.7845 146.59 47.8228C146.551 47.8611 146.498 47.8823 146.443 47.8819H144.774C144.722 47.8819 144.672 47.8625 144.634 47.8276C144.596 47.7928 144.572 47.7449 144.568 47.6934L144.531 47.2727C144.519 46.2912 143.483 45.0272 142.504 44.9462L142.459 44.9425C141.996 44.8922 141.53 44.8755 141.064 44.8925C136.851 44.9577 136.157 45.974 134.52 47.9123L134.578 57.7862C134.579 57.9028 134.534 58.015 134.453 58.0987C134.371 58.1824 134.261 58.2309 134.144 58.2337L132.569 58.2726C132.509 58.2741 132.45 58.2637 132.395 58.242C132.34 58.2203 132.289 58.1877 132.247 58.1463C132.204 58.1048 132.17 58.0553 132.147 58.0006C132.124 57.9459 132.112 57.8871 132.112 57.8277V42.9316H134.489L134.444 45.506L134.413 45.9477Z" fill="black"/>
<path d="M163.701 48.6546L165.943 48.6142C165.986 48.6136 166.029 48.6042 166.068 48.5866C166.108 48.569 166.143 48.5435 166.172 48.5116C166.202 48.4798 166.224 48.4423 166.238 48.4015C166.252 48.3608 166.258 48.3175 166.255 48.2744C166.25 48.2111 166.25 48.1476 166.255 48.0843C166.411 45.9419 165.908 43.0857 160.351 42.924C160.334 42.9235 160.316 42.9232 160.298 42.9229C158.531 42.8924 151.887 43.1057 151.887 43.1057C151.887 43.1057 149.053 43.6235 148.657 46.243C148.261 48.8626 148.722 56.6707 148.722 56.6707C148.722 56.6707 148.874 57.8587 150.581 58.4374C150.581 58.4374 152.013 58.4358 153.202 58.5429C154.069 58.6211 158.318 58.5125 160.486 58.5357C161.795 58.5498 163.793 58.5962 164.973 58.03C165.976 57.549 166.223 56.54 166.278 55.5628C166.331 54.8565 166.347 54.148 166.327 53.4401C166.323 53.3759 166.294 53.3157 166.246 53.2723C166.199 53.2288 166.136 53.2055 166.072 53.2071L163.695 53.2451C163.634 53.2461 163.576 53.2707 163.533 53.3138C163.49 53.3568 163.466 53.4149 163.465 53.4756L163.45 54.7412C163.447 55.1894 163.287 55.6225 162.999 55.9658C162.71 56.309 162.311 56.5409 161.87 56.6215L161.822 56.6298C160.207 56.904 152.592 56.5184 152.592 56.5184C152.592 56.5184 151.686 56.3398 151.526 55.7569C151.326 54.764 151.221 53.7542 151.213 52.7414L151.1 47.0182C151.089 46.6955 151.18 46.3775 151.36 46.1091C151.539 45.8407 151.798 45.6354 152.101 45.5222C152.111 45.5187 152.121 45.5153 152.131 45.512C153.031 45.2122 159.573 45.2917 160.904 45.3089C161.042 45.3107 161.155 45.3096 161.397 45.3216C161.64 45.3273 161.88 45.3833 162.101 45.486C162.321 45.5887 162.518 45.7359 162.68 45.9184C163.424 46.5546 163.386 47.8074 163.408 48.3789C163.411 48.4541 163.443 48.5251 163.498 48.5767C163.553 48.6283 163.626 48.6562 163.701 48.6546Z" fill="black"/>
<path d="M115.028 43.5749C114.03 43.6919 113.092 44.1116 112.34 44.7776C110.804 46.0572 110.343 47.4903 110.343 50.8171C110.343 56.7029 112.289 58.4175 119.048 58.4431C124.604 58.4431 126.678 57.4962 127.753 54.3998C128.445 52.4293 128.445 49.1281 127.753 47.1064C127.011 44.9056 125.679 43.8564 123.221 43.4981C120.5 43.1512 117.743 43.177 115.028 43.5749ZM123.426 45.2383C124.963 45.6989 125.577 46.4922 125.961 48.4371C126.286 50.4238 126.181 52.4569 125.654 54.3998C125.423 55.3466 125.244 55.5513 123.964 56.1911C122.607 56.882 122.377 56.9076 118.92 56.9076C115.412 56.9076 115.259 56.882 114.235 56.2167C113.39 55.6537 113.108 55.2442 112.775 54.1694C112.007 51.5336 112.493 46.9784 113.671 45.9036C114.491 45.1615 116.872 44.752 119.816 44.88C121.027 44.9099 122.233 45.0297 123.426 45.2383Z" fill="black"/>
<path d="M1.79042e-05 27.898H12.2308L24.1217 45.2411C24.1217 45.2411 26.1476 48.4104 28.3496 45.2411C30.2672 42.4813 50.3525 10.3473 55.51 2.09081C55.9469 1.3836 56.5752 0.814496 57.3222 0.449366C58.0692 0.084235 58.9044 -0.0619951 59.7312 0.0275994C61.2115 0.197983 62.8431 0.803361 63.6359 2.50348C63.9389 3.1729 64.068 3.90792 64.0111 4.64046C63.9542 5.37299 63.7133 6.07932 63.3106 6.69401L30.4006 57.9268C29.7857 58.889 28.8217 59.5756 27.7111 59.8423C26.5463 60.119 25.0655 60.1361 23.8575 59.0628C22.3382 57.7131 13.0187 45.3694 6.48495 36.6291C3.82378 33.0693 1.66215 30.1589 1.79042e-05 27.898Z" fill="#4A73CF"/>
</g>
<defs>
<clipPath id="clip0_1664_133">
<rect width="186" height="60" fill="white"/>
</clipPath>
</defs>
</svg>
